# xmcd CD database file
#
# Track frame offsets:
#	182
#	19845
#	41452
#	59160
#	76135
#	96302
#	118232
#	134882
#	153665
#	169915
#
# Disc length: 2550 seconds
#
# Revision: 2
# Processed by: cddbd v1.5.1PL0 Copyright (c) Steve Scherf et al.
# Submitted via: CDex 1.51
#
DISCID=9009f40a
DTITLE=Stevie Salas Colorcode - Stevie Salas Colorcode
DYEAR=1990
DGENRE=Rock
TTITLE0=Stand Up!
TTITLE1=Blind
TTITLE2=Caught In The Middle Of It
TTITLE3=Just Like That
TTITLE4=Two Bullets And A Gun
TTITLE5=The Harder They COme
TTITLE6=Over and Over Again
TTITLE7=Baby Walk On
TTITLE8=Indian Chief
TTITLE9=Cover Me
EXTD=YEAR: 1990
EXTT0=
EXTT1=
EXTT2=
EXTT3=
EXTT4=
EXTT5=
EXTT6=
EXTT7=
EXTT8=
EXTT9=
PLAYORDER=
